<svg width="52" height="51" viewBox="0 0 52 51" fill="none" xmlns="http://www.w3.org/2000/svg">
<g filter="url(#filter0_dd_1_5495)">
<path d="M25.9805 4.8172C15.11 4.8172 6.29774 13.6295 6.29774 24.5C6.29774 35.3705 15.11 44.1827 25.9805 44.1827C35.7333 44.1827 43.8294 37.0894 45.3911 27.7804H45.2499C43.7932 33.44 38.6557 37.6218 32.5414 37.6218C25.2945 37.6218 19.4196 31.747 19.4196 24.5C19.4196 17.253 25.2945 11.3781 32.5414 11.3781C38.6557 11.3781 43.7932 15.56 45.2499 21.2195H45.3911C43.8294 11.9105 35.7333 4.8172 25.9805 4.8172Z" fill="#A4BCFD"/>
<path d="M6.29774 24.5C6.29774 13.6295 15.11 4.8172 25.9805 4.8172C35.7333 4.8172 43.8294 11.9105 45.3911 21.2195H32.128C30.6714 15.56 25.5338 11.3781 19.4196 11.3781C12.1726 11.3781 6.29774 17.253 6.29774 24.5Z" fill="#3538CD"/>
<path d="M6.29775 24.5C6.29775 35.3705 15.11 44.1827 25.9805 44.1827C35.7333 44.1827 43.8294 37.0894 45.3911 27.7804H32.128C30.6714 33.44 25.5338 37.6218 19.4196 37.6218C12.1726 37.6218 6.29775 31.747 6.29775 24.5Z" fill="#3538CD"/>
</g>
<defs>
<filter id="filter0_dd_1_5495" x="0.5" y="0" width="51" height="51" filterUnits="userSpaceOnUse" color-interpolation-filters="sRGB">
<feFlood flood-opacity="0" result="BackgroundImageFix"/>
<feColorMatrix in="SourceAlpha" type="matrix" values="0 0 0 0 0 0 0 0 0 0 0 0 0 0 0 0 0 0 127 0" result="hardAlpha"/>
<feOffset dy="1"/>
<feGaussianBlur stdDeviation="1"/>
<feColorMatrix type="matrix" values="0 0 0 0 0.0627451 0 0 0 0 0.0941176 0 0 0 0 0.156863 0 0 0 0.06 0"/>
<feBlend mode="normal" in2="BackgroundImageFix" result="effect1_dropShadow_1_5495"/>
<feColorMatrix in="SourceAlpha" type="matrix" values="0 0 0 0 0 0 0 0 0 0 0 0 0 0 0 0 0 0 127 0" result="hardAlpha"/>
<feOffset dy="1"/>
<feGaussianBlur stdDeviation="1.5"/>
<feColorMatrix type="matrix" values="0 0 0 0 0.0627451 0 0 0 0 0.0941176 0 0 0 0 0.156863 0 0 0 0.1 0"/>
<feBlend mode="normal" in2="effect1_dropShadow_1_5495" result="effect2_dropShadow_1_5495"/>
<feBlend mode="normal" in="SourceGraphic" in2="effect2_dropShadow_1_5495" result="shape"/>
</filter>
</defs>
</svg>
